<?xml version="1.0" encoding="iso-8859-1"?>
<!DOCTYPE svg PUBLIC "-//W3C//DTD SVG 1.1//EN" "http://www.w3.org/Graphics/SVG/1.1/DTD/svg11.dtd">
<svg 
 version="1.1" xmlns="http://www.w3.org/2000/svg" xmlns:xlink="http://www.w3.org/1999/xlink" x="0px" y="0px" width="512px"
	 height="512px" viewBox="0 0 512 512" enable-background="new 0 0 512 512" xml:space="preserve"
><g id="e6c6b53d3c8160b22dad35a0f70b8ff8"><g></g><g fill="#e20f00"><path display="inline" d="M493.109,19.13c-44.022-44.022-174.677,0-203.793,29.114l-29.111,29.114l-43.669,43.667L12.748,324.813
		c-16.013,16.014-16.013,42.215,0,58.223L129.202,499.49c16.008,16.014,42.21,16.014,58.227,0l203.784-203.783l43.67-43.674
		l29.115-29.111C493.109,193.81,536.049,62.077,493.109,19.13z M180.477,403.908c-10.619,10.623-25.05,17.635-40.986,18.541
		l-1.799-20.043c11.521-1.105,21.442-4.414,29.46-12.428c6.318-6.316,7.619-12.621,3.508-16.732l-0.199-0.199
		c-3.907-3.908-8.326-3.514-23.047,5.211c-17.739,10.52-30.77,15.729-44.693,1.801l-0.2-0.195
		c-12.731-12.736-10.918-31.363,3.409-45.695c10.22-10.221,22.141-15.727,34.972-17.137l3.603,19.639
		c-10.52,1.904-19.24,5.412-25.15,11.322c-5.915,5.918-6.313,11.729-2.905,15.129l0.199,0.199c4.605,4.613,9.119,3.113,24.348-5.91
		c17.935-10.52,31.069-13.426,43.297-1.201l0.195,0.199C198.42,370.34,195.61,388.773,180.477,403.908z M269.356,313.029
		l-22.15-9.318l-29.66,29.66l9.323,22.148l-15.732,15.732l-40.587-100.709l14.232-14.227l100.708,40.586L269.356,313.029z
		 M296.301,286.088l-70.147-70.151l15.433-15.433l56.115,56.115l34.977-34.972l14.037,14.032L296.301,286.088z M358.322,224.068
		l-70.152-70.152l52.906-52.906l13.737,13.727l-37.582,37.578l14.236,14.234l33.068-33.07l13.729,13.73l-33.068,33.068l14.726,14.73
		l38.081-38.079l13.732,13.727L358.322,224.068z M463.998,91.914c-12.061,12.056-31.613,12.058-43.669,0
		c-12.065-12.061-12.065-31.609,0-43.669c12.056-12.061,31.604-12.061,43.669,0C476.055,60.305,476.055,79.853,463.998,91.914z
		 M209.434,314.234l-13.429-32.07l32.066,13.43L209.434,314.234z"></path></g></g></svg>